<svg xmlns="http://www.w3.org/2000/svg" xmlns:xlink="http://www.w3.org/1999/xlink" width="500" height="200" viewBox="0 0 375 150" version="1.2"><defs><symbol overflow="visible" id="prefix__a"><path d="M27.195-41.992c-1.836 7.133-4.441 13.406-8.847 18.762.086-2.368.148-4.704.234-7.07.207-7.458.77-13.88.535-21.337-.058-1.894-5.09-2.87-5.27-.976-.413 4.644-.648 9.351-.769 14.054-.414 1.895-.887 3.758-1.508 5.563-.738 2.101-1.57 4.234-2.722 6.156-.887 1.508-2.75 4.23-3.106 4.113-1.894-1.242-1.984-4.41-2.101-6.39-.121-2.633-.18-5.27-.18-7.93-.027-2.812.477-11.008.535-13.82.117-3.254-4.617-4.32-5.148-1.926-.536 2.191-.743 6.273-.832 9.293a180.796 180.796 0 000 11.273c.148 5.27.504 12.075 7.164 12.754 2.691.621 5.738-4.023 7.691-8.343-.059 3.433-.117 6.836-.207 10.238C6.984-12.785.77-8.168-2.898-1.54c-2.16 3.937-3.317 8.82-1.125 12.992 1.863 3.61 5.71 4.942 9.585 4.438 5.18-.68 8.614-3.582 10.446-8.493 1.805-4.855 1.746-10.18 1.894-15.27.118-4.081.239-8.167.356-12.25 6.125-5.98 8.847-13.347 11.746-21.542.387-1.094-2.543-1.273-2.809-.328zM12.133-1.332c-.297 4.437-1.067 9.441-4.262 12.785-1.922 1.98-4.055 4.082-6.953 2.453-1.984-1.12-3.195-3.402-3.61-5.59-.949-5.062 1.922-10.062 5-13.82 3.047-3.64 6.657-6.656 10.27-9.676-.09 4.617-.148 9.23-.445 13.848zm0 0"/></symbol><symbol overflow="visible" id="prefix__b"><path d="M18.434-39.18c.296-1.21-.946-1.98-1.418-.562-.743 2.16-3.668 18.793-7.309 18.969-1.242.058-1.687-.532-2.309-1.54-1.007-1.656-1.656-3.55-2.16-5.414-1.035-4.144-1.332-8.55-1.39-12.785-.032-2.07 0-5.738.117-7.812 8.789-11.508 13.73-29.914 10.004-34.028-1.184-1.304-2.547-1.687-4.145-1.125-1.773.59-4.082 2.899-7.011 11.157-3.524 9.941-4.766 21.422-4.56 31.93.15 6.656.86 24.324 11.364 22.812 4.766-.68 6.54-11.422 8.817-21.602zM6.57-66.105c.77-3.997 3.578-14.622 5.977-15.36 3.64 5.266-6.035 26.305-8.02 28.14.504-4.288 1.215-8.55 2.043-12.78zm0 0"/></symbol><symbol overflow="visible" id="prefix__c"><path d="M23.703-41.664c-.594 4.055-1.598 7.96-3.226 11.687-.77 1.778-1.625 3.493-2.723 5.09-.324.532-.711 1.035-1.125 1.54-.117-.383-.234-.801-.266-1.215-1.597-8.137-.855-16.66-.234-24.887.086-1.301-2.223-1.684-3.906-1.242-.09-.118-.149-.207-.239-.293-2.07-2.282-6.156-2.075-8.433-.239-2.989 2.368-4.352 7.16-5.297 10.653-1.094 4.086-1.598 8.258-1.36 12.457.176 3.199.563 7.457 3.993 8.82 3.906 1.508 6.394-1.422 7.843-4.648a31.421 31.421 0 001.391-3.696c.297 3.223 1.152 6.54 4.055 7.336 4.761 1.305 6.332-3.078 7.605-6.656 1.684-4.707 2.633-9.707 3.223-14.648.031-.266-1.274-.356-1.3-.06zM7.574-34.031c-.59 2.16-1.21 4.32-1.98 6.422-.328.859-1.184 3.375-2.219 4.824-.355-.945-.563-2.16-.621-2.633-.27-1.598-.328-3.258-.328-4.883 0-3.64.535-7.308 1.597-10.8a34.683 34.683 0 011.778-4.708c.324-.738.68-1.48 1.062-2.16.239-.414.477-.855.77-1.3.18.238.387.472.535.71.441.621.77 1.332 1.152 1.98.207.388.387.77.535 1.157-.62 3.817-1.214 7.664-2.28 11.39zm0 0"/></symbol><symbol overflow="visible" id="prefix__d"><path d="M32.875-36.605c1.305-.149 1.39-1.657-.266-1.598-2.87.09-5.71 1.008-8.343 2.426-.09-1.508-.239-3.047-.504-4.555-.653-3.7-2.516-6.895-6.63-7.133-4.585-.265-7.07 3.375-9.054 6.985-2.043 3.699-3.285 7.78-4.055 11.953-.058-2.188-.085-4.348-.058-6.54.031-2.574.09-5.148.207-7.722 3.816-5.414 6.57-11.809 8.433-18.05.977-3.403 3.137-12.49 1.48-14.59-.71-.887-2.07-1.036-3.167-.919-2.84.356-5 3.258-6.273 5.535-1.832 3.227-2.84 7.012-3.7 10.594-1.922 8.344-2.425 17.133-2.453 25.657-.031 4.91.149 9.855.621 14.734.383 3.906.918 8.672 3.64 11.719.708.8 5.118.949 4.704-.707-.8-3.258-.594-6.75-.473-10.094.118-3.461.383-6.922 1.036-10.356.652-3.375 1.714-6.66 3.312-9.707.742-1.48 1.629-2.898 2.723-4.14.328-.356 1.718-1.953 2.367-1.778.27.059.86 1.157 1.008 1.422 1.566 2.809 1.422 6.688 1.39 9.824 0 .563-.03 1.153-.058 1.747a31.147 31.147 0 00-3.88 4.082c-2.632 3.285-4.85 7.605-4.702 11.925.117 3.848 3.933 5.356 7.191 3.52 3.7-2.129 4.969-8.285 5.828-12.102a43.418 43.418 0 001.094-8.816c2.605-1.719 5.535-2.93 8.582-3.316zM6.687-61.875c.86-3.73 1.985-8.227 4.32-11.305.266-.382.532-.652.712-.828.058.414 0 .945 0 1.63-.09.796-.117 1.597-.207 2.394-.18 2.101-.504 4.171-.918 6.246-1.242 5.855-3.492 11.066-6.098 16.242.418-4.852 1.098-9.676 2.191-14.379zm10.801 39.504c-.414 1.805-1.035 3.55-1.597 5.297-.594 1.715-1.688 2.812-1.805 2.543-1.363-2.453.504-7.516 2.101-10.207a25.257 25.257 0 012.278-3.227 62.1 62.1 0 01-.977 5.594zm0 0"/></symbol><symbol overflow="visible" id="prefix__e"><path d="M25.656-37.758c-.531 4.942-1.953 9.883-3.492 14.617-.71 2.16-1.48 3.965-2.723 5.86 0-.032 0-.032-.03-.059a6.072 6.072 0 01-.59-1.125c-.415-.945-.563-2.012-.739-3.047-1.598-9.234.59-19.414.145-28.703-.118-1.984-5.563-.95-5.383.914.027.27.027.504.027.77-.059 5.297-3.992 23.586-5.86 24.265-2.038.743-2.78-3.699-2.78-3.699-.532-2.187-.77-4.469-.887-6.715-.176-2.515-.117-12.816-.176-15.36-.031-2.16-3.406-1.3-4.234-.265-1.184 1.418-1.125 5.918-1.153 9.47-.058 3.136 0 6.331.356 9.437.531 4.675 2.457 11.84 8.285 9.945 3.371-1.094 3.996-6.48 5.77-12.043a97.129 97.129 0 00-.149 2.898c-.09 3.078 0 6.157.562 9.203.387 2.13.801 4.704 2.813 5.95 3.934 2.367 6.598-.89 7.781-4.528 1.953-5.918 3.758-11.632 3.461-17.816 0-.148-.976-.117-1.004.031zm0 0"/></symbol><symbol overflow="visible" id="prefix__f"><path d="M15.742-35.984c3.758-6.184 3.492-15.653-4.765-17.844-7.543-2.012-13.551 5.18-13.254 12.312.148 3.551 1.953 6.657 4.437 9.114 1.274 1.242 2.723 2.308 4.23 3.254 1.598 1.007 3.551 1.953 4.352 3.757 1.274 2.844-1.3 4.528-3.375 4.38-2.484-.208-3.285-2.9-3.52-5-.206-2.071-5.831-1.833-5.624.12.593 5.473 4.617 8.047 9.914 7.782 2.16-.118 4.5-.621 6.304-1.895 2.957-2.07 2.84-5.562.414-8.11-2.515-2.66-6.183-3.843-8.64-6.687-2.664-3.078-3.582-7.219-2.219-11.094.59-1.66 1.567-3.406 2.93-4.53 1.035-.829 1.566-.915 2.781-.294 5.207 2.692 3.785 10.059 2.602 14.32-.293 1.067 3.02 1.126 3.433.415zm0 0"/></symbol><symbol overflow="visible" id="prefix__g"><path d="M3.64.227c1.165 0 1.934-.797 1.934-1.875 0-1.082-.77-1.848-1.933-1.848-1.137 0-1.907.766-1.907 1.848 0 1.078.77 1.875 1.907 1.875zm0 0"/></symbol><symbol overflow="visible" id="prefix__h"><path d="M2.645 0H5.03v-7.45c0-3.241 1.965-5.402 4.723-5.402 2.586 0 4.18 1.875 4.18 4.86V0h2.386v-8.219c0-4.207-2.332-6.91-6.254-6.91-1.992 0-3.925.77-5.203 2.531l-.258-2.16h-1.96zm0 0"/></symbol><symbol overflow="visible" id="prefix__i"><path d="M10.691.371c4.352 0 7.508-3.27 7.508-7.766 0-4.464-3.156-7.734-7.508-7.734-2.418 0-4.464.996-5.8 2.645l-.286-2.274h-1.96V5.688H5.03v-7.793C6.371-.57 8.36.37 10.691.37zM4.95-7.395c0-3.183 2.246-5.457 5.43-5.457 3.215 0 5.43 2.274 5.43 5.457 0 3.215-2.215 5.461-5.43 5.461-3.184 0-5.43-2.246-5.43-5.46zm0 0"/></symbol><symbol overflow="visible" id="prefix__j"><path d="M1.273-47.453c1.88 5.394 2.18 5.82 5.153 9.21 2.058 2.364 3.21 3.395 5.754 5.458.547.422.91.906.851 1.148-.062.246.18.547.485.73.3.18.664.423.785.606.363.363.61.301.668-.183-.059-.301.062-.18.304.304.301.785 1.149 1.332 2.122 1.332.605 0 3.09 1.274 2.484 1.274-.184 0-.363.12-.363.242 0 .305.605.547 1.27.547.304-.063.546.12.487.3 0 .184.422.364 1.028.426.726.122 1.273.364 1.637.848.304.426.847.668 1.394.79 1.273.12 1.695.3 1.758.605 0 .12.12.242.305.242.605 0 1.695.789 1.574 1.09 0 .242.18.484.605.726.426.184.727.363.727.485 0 .12.304.242.605.242.364.062.668.246.668.426 0 .242.363.605.79.847 1.09.606 1.21.79 1.394 2.184.242 1.394.12 2.058-.973 4.847-1.332 3.516-5.758 8-10.543 10.727-.91.547-5.82 2.547-6.242 2.547-.242 0-.668.18-.969.363-.789.485-3.273.606-5.636.3C6.969.91 6.12.122 5.515-2.425c-.183-.726-.183-.726-.363-.3-.12.3-.242.605-.363.667-.184.18.3 2.664.606 3.028.12.12.242.363.242.547 0 .242.363 1.03.847 1.816.606.973 1.153 1.578 1.88 1.941.546.301.968.606.968.727 0 .426 2.727 1.637 5.152 2.242 1.09.305 7.274-.242 8.364-.668 1.09-.484 3.937-2.058 4.847-2.726 1.332-.91 2.91-2.121 3.211-2.485.242-.18.485-.425.61-.425.422 0 4.18-4.606 5.027-6.118 1.215-2 1.879-3.82 2.184-5.515.242-1.274.18-2.121-.243-4.668-.242-1.516-1.941-4.301-4.789-7.817-.547-.668-.968-1.273-.968-1.394-.063-.848-5.579-5.88-5.758-5.211-.121.363-.426.3-.547-.184-.059-.484-.785-.91-6.485-4.12-5.574-3.09-6-3.274-9.39-5.817-4.91-3.578-6-5.336-6.121-10-.063-1.395.726-4.547 1.27-5.395.242-.304.609-.969.91-1.574.667-1.395 1.94-3.395 3.21-5.031.973-1.274 1.82-2.184 4.364-4.79 1.515-1.515 1.515-1.515 1.699-1.574.121 0 .543-.425.969-.968.91-1.153 2.789-2.668 4-3.215.547-.242 1.152-.664 1.394-1.027.242-.305 1.211-1.032 2.121-1.516.91-.484 1.817-1.031 2.059-1.152.183-.122.484-.243.605-.243.184 0 .547-.242.852-.546.363-.243.969-.543 1.39-.606.669-.18 1.516-.484 2.79-1.09.605-.363 3.273-1.031 5.152-1.394 2.668-.543 5.758-.727 8.18-.543 2.425.18 2.91.422 3.03 1.39.184 1.395-1.03 5.457-2.726 8.97-.304.73-.668 1.456-.726 1.698-.305.79-2.305 4.242-2.606 4.543-.363.367-.363.305-.242-.3.121-.547.121-.547-.246.18-1.09 2.425-3.27 4.972-3.332 3.82 0-.305-1.695-2-1.938-2-.304 0-.12.484.364.968.242.305.363.606.3.606-.058 0 .122.425.364.968.246.489.61 1.7.789 2.547.605 2.364.848 2.848 1.7 3.395.421.3 1.026.847 1.331 1.152.969 1.211 2.668.727 3.695-1.031 1.274-2.305 3.274-5.879 3.395-6.305.121-.242.484-1.027.91-1.879.91-1.754 2.664-6.238 2.606-6.664 0-.183.12-.484.242-.605.12-.184.426-1.215.605-2.305.727-3.879-.058-7.394-2.242-10.906-1.152-1.879-3.273-3.758-4.121-3.758-.3 0-.605-.121-.668-.363-.059-.184-.422-.305-.848-.305-.363 0-.847-.121-.968-.305-.121-.12-.485-.242-.79-.242-.363 0-.847-.18-1.21-.484-.606-.543-1.274-.664-1.454-.242-.062.12-.851.304-1.757.304-2.79.121-7.82 1.332-10.91 2.727-.422.121-1.516.605-2.364.969-.847.425-2.484 1.273-3.637 1.941-1.09.606-2.12 1.148-2.18 1.148-.062 0-.847.547-1.698 1.274-.907.668-1.696 1.215-1.758 1.215-.363 0-4.543 3.633-5.453 4.726-.18.243-.485.422-.606.422-.12 0-.363.184-.547.426-.18.3-.847 1.031-1.515 1.695-2.664 2.79-4.907 6.184-6.301 9.578C.363-56.969.242-56.238.426-52.785c.12 2.726.242 3.394.847 5.332zM31.27-9.574c.183 0 .246.058.246.12 0 .06-.063.18-.246.302-.06.062-.18 0-.18-.121 0-.122.058-.301.18-.301zM9.332 3.636c-.18-.241-.3-.241-.242-.062 0 .242-.18.242-.543.121-.547-.18-1.82-1.09-1.7-1.21.063-.06.548.062 1.212.242.851.304 1.757.363 3.941.183 2.242-.183 2.727-.12 2.422.18-.664.547-.18.547 1.094.062.726-.304 1.879-.668 2.605-.847.727-.184 1.274-.426 1.274-.489 0-.18.785-.664 1.695-1.148.969-.547 1.879-1.031 2-1.152.062-.121.305-.243.426-.243.363 0-.489.606-2.121 1.637-.79.543-1.579 1.09-1.758 1.274-.184.18-.91.543-1.578.726-.664.3-1.395.543-1.637.606-.906.3-3.633.664-5.211.605-1.152 0-1.637-.121-1.879-.484zM32.664-.667c-.3 0-.3-.242 0-.422.121-.12.184-.062.184.121.058.121-.063.242-.184.301zm2.363-9.937c.243.242-.484 2.968-1.027 4.242-.305.605-.91 1.515-1.273 2-.485.484-.79 1.09-.79 1.21 0 .243-.242.606-.546.848-.301.184-.543.489-.543.668 0 .305-.243.547-1.88 2.121C26.059 3.211 22 5.516 19.153 6c-2.425.426-5.941.605-7.215.426-1.636-.246-2.242-.489-2-.79.184-.183.426-.183.79 0 .789.301 3.636 0 6.062-.546 2.484-.664 6.606-2.606 8.238-3.938.305-.304 1.336-1.09 2.246-1.82 1.938-1.516 4.059-4.18 3.332-4.18-.062 0-.726.668-1.457 1.516C26.968-.969 22.785 2 20.301 3.031c-2 .785-.785-.363 2.12-2.062 2.727-1.637 6.974-5.211 6.974-5.88 0-.3 2.18-3.089 2.421-3.089.364 0 .184.668-.3 1.695-.973 1.637-.426 1.395.664-.363.91-1.453 1.457-2.121 1.09-1.39-.06.18 0 .3.183.3.242-.058.426-.484.606-1.152.242-1.211.668-2 .968-1.695zm-5.816-16.422c.242.242.484.484.484.543 0 .363-.12.242-.605-.301-.426-.547-.426-.547.12-.242zm-1.332 0c.3.3.543.543.484.543-.242-.059-1.394-.727-1.394-.91 0-.243.363-.06.91.367zM26.3-28c.304.305.426.484.304.484-.12 0-.546-.18-.789-.484-.726-.605-.3-.664.485 0zm-2.363-1.27c.12 0 .304.122.363.301.183.305.12.305-.301 0-.184-.18-.242-.3-.063-.3zm-1.153-.488c.305.184.488.305.488.426.059.184-.062.121-.546-.305-.426-.363-.426-.363.058-.12zm-1.453-.726c.184 0 .426.12.605.242.184.12.243.242.122.242-.122 0-.364-.121-.606-.242-.18-.121-.242-.242-.121-.242zm-2.547-1.575c.184.059.367.243.367.364.059.304-.062.304-.425-.184-.243-.3-.243-.363.058-.18zm-2.969-2.484c.121 0 .426.121.606.242.183.121.242.301.062.301-.062 0-.363-.121-.547-.242-.18-.18-.242-.301-.12-.301zM4-57.996c-.242 0-.305-.242 0-.426.121-.121.242-.058.242.121 0 .121-.12.242-.242.305zm-.121-2.484c-1.332 2.12-1.274 1.816 0-.489.426-.664.789-1.27.848-1.27.183 0-.059.485-.848 1.759zm38.726-22.426c1.454 0 1.211.484-.242.547-.73 0-.851.12-.73.421.12.305-.121.368-1.27.426-.789 0-1.82.121-2.304.184l-.91.18 1.03-.364c.79-.242.91-.304.548-.484-.305-.063-.547-.121-.668-.063-.18.184-.426.184-1.454.368-.12 0-.242.18-.242.363 0 .242-.363.484-.789.605-.91.243-1.394-.062-.605-.304.363-.121.422-.243.242-.364-.184-.12-.484-.058-.727.121-.242.122-.547.305-.668.243-.304-.059-.18.425.121.547.305.12-2.242.664-2.605.543-.062 0-.305.12-.484.304-.243.242-.426.242-.485 0-.183-.305-1.215.121-1.152.547 0 .242-.121.18-.363 0-.364-.363-1.332.121-1.09.543.058.121-.426.426-1.094.727-.605.246-1.516.668-1.879.972-.664.422-.906.485-1.332.242-.3-.12-.547-.12-.547 0 0 .122.184.243.305.301.184.063.242.242.121.364-.059.062-.305.062-.484-.122-.305-.242-.364-.242-.364.121 0 .364-1.03 1.215-1.515 1.215-.242 0-.242-.062-.063-.363.305-.426.125-.547-.422-.184-.12.184-.183.364-.12.606.179.305-.305.789-1.759 1.758-1.09.726-1.273.789-1.09.363.122-.18.06-.3-.183-.18-.121.059-.242.301-.242.543.12.243 0 .485-.121.606-.121.062-.242 0-.242-.121s-.184-.18-.426-.059c-.242.059-.485.363-.422.606 0 .363-.184.484-.426.484-.18-.059-.605.062-.91.184-.363.12-.422.3-.3.785.12.484 0 .668-.548 1.03-.785.548-1.027.548-.785.185.059-.184-.183-.122-.547.12-.363.243-.726.606-.847.727-.184.422.421.242.847-.183.242-.301.426-.364.426-.18 0 .18-.305.543-.61.726-.363.305-.906.848-1.21 1.332l-.606.79.121-.727c.121-.727.063-.727-.242-.484-.183.242-.242.484-.183.664.12.363-1.09 2.062-1.454 2.062-.12 0-.242.121-.242.18 0 .363-1.515 2.242-1.695 2.062-.063-.062 0-.242.18-.363.183-.121.242-.363.12-.426-.179-.242-.663.606-.663 1.274 0 .363-.91 2.058-1.153 2.058-.062 0 .18-.422.364-.906.3-.547.421-1.031.421-1.094-.058-.058-.421.368-.847.973-.363.664-.664 1.027-.664.906 0-.363 1.816-3.39 2.847-4.664 2.301-2.969 4.543-5.578 4.848-5.578.059 0 .3-.18.422-.363.73-.785 2.121-2.059 2.367-2.121.121 0 .242-.059.242-.18 0-.484 5.575-4.547 5.817-4.242.062.12.426-.184.789-.547.3-.422.726-.727.906-.727.184 0 .547-.18.91-.363 1.7-1.152 5.031-2.363 6.91-2.605.727-.063 1.516-.364 1.817-.668.969-.79 6.605-1.88 10.304-1.88zM9.332-67.937c3.879-3.938 6.605-6.301 6.79-6.06.058.06-.548.669-1.395 1.274-.79.664-1.516 1.27-1.575 1.391-.062.062-.972.973-2 1.941-1.03 1.032-2.668 2.79-3.636 4-.97 1.153-1.82 2.059-1.942 2.121-.3 0 2.364-3.273 3.758-4.667zm13.879-10.848c.242-.121.305-.059.242.062-.121.18-.242.301-.363.301-.305 0-.242-.18.12-.363zM1.453-57.695c.184-.97 1.336-3.637 2.121-5.149.79-1.515 3.82-5.336 5.395-6.972.605-.606 1.21-1.27 1.453-1.516.426-.606 2.547-2.664 2.789-2.664.062 0 .547-.484 1.152-1.09.547-.61 1.032-.973 1.09-.789.063.121.305.121.727 0 .972-.363 1.215-.605.851-.848-.12-.12-.062-.242.301-.363.363-.062.605-.305.605-.426a.26.26 0 01.243-.242c.12 0 .183.121.12.242-.058.121-.058.242.063.242.059 0 .242-.242.364-.605.12-.363.484-.668 1.152-.848.543-.183.969-.363.969-.484s.183-.184.425-.242c.243 0 .606-.184.786-.426.183-.184.304-.363.304-.242 0 .058.422-.063.848-.305a28.404 28.404 0 011.879-.848c.547-.18 1.758-.668 2.668-1.09 1.758-.726 6.969-2.183 7.148-2 .121.122-.242.301-2.484.848-1.031.305-2.18.547-2.664.727-.426.12-1.094.363-1.578.605-.422.243-1.153.547-1.637.73-.906.302-2.484 1.028-3.938 1.759-2.605 1.453-3.152 1.754-3.453 2.18-.183.241-.488.484-.609.484-.18.062-.605.304-.969.668-.3.3-.91.785-1.273.968-.363.243-1.028.727-1.453 1.032-.485.3-.848.543-.91.484-.122-.121-.665.422-1.27 1.152-.547.727-1.215 1.391-1.336 1.516-1.453.906-3.09 2.543-2.969 2.906.121.184.063.184 0 .121-.363-.18-3.574 3.942-4.668 5.942-.484.847-1.21 2.422-1.636 3.39-.422 1.032-.664 1.516-.606 1.153zm0 0"/></symbol></defs><g fill="#1e3a8a"><use xlink:href="#prefix__a" x="114.18" y="120.571"/><use xlink:href="#prefix__b" x="142.584" y="120.571"/><use xlink:href="#prefix__b" x="159.537" y="120.571"/><use xlink:href="#prefix__c" x="176.491" y="120.571"/><use xlink:href="#prefix__d" x="200.368" y="120.571"/><use xlink:href="#prefix__e" x="232.974" y="120.571"/><use xlink:href="#prefix__f" x="258.596" y="120.571"/><use xlink:href="#prefix__g" x="279.376" y="99.354"/><use xlink:href="#prefix__h" x="286.683" y="99.354"/><use xlink:href="#prefix__i" x="305.362" y="99.354"/><use xlink:href="#prefix__j" x="61.268" y="112.039"/></g></svg>